<mxfile host="65bd71144e" scale="1" border="10">
    <diagram id="atENPhH2NUAy_5dnmolO" name="Page-1">
        <mxGraphModel dx="760" dy="378" grid="1" gridSize="10" guides="1" tooltips="1" connect="1" arrows="1" fold="1" page="1" pageScale="1" pageWidth="1169" pageHeight="827" background="#ffffff" math="1" shadow="0">
            <root>
                <mxCell id="0"/>
                <mxCell id="1" parent="0"/>
                <mxCell id="4" value="" style="edgeStyle=none;html=1;" parent="1" source="UOKjDGIfQb2OCm12poKL-2" target="3" edge="1">
                    <mxGeometry relative="1" as="geometry"/>
                </mxCell>
                <mxCell id="UOKjDGIfQb2OCm12poKL-2" value="&lt;div&gt;Holoeye&lt;/div&gt;" style="text;html=1;strokeColor=default;fillColor=none;align=center;verticalAlign=middle;whiteSpace=wrap;rounded=0;" parent="1" vertex="1">
                    <mxGeometry x="80" y="120" width="60" height="40" as="geometry"/>
                </mxCell>
                <mxCell id="UOKjDGIfQb2OCm12poKL-5" value="Amplitude" style="text;html=1;strokeColor=default;fillColor=none;align=center;verticalAlign=middle;whiteSpace=wrap;rounded=0;" parent="1" vertex="1">
                    <mxGeometry x="360" y="180" width="80" height="40" as="geometry"/>
                </mxCell>
                <mxCell id="5" value="" style="edgeStyle=none;html=1;" parent="1" source="UOKjDGIfQb2OCm12poKL-8" target="UOKjDGIfQb2OCm12poKL-9" edge="1">
                    <mxGeometry relative="1" as="geometry"/>
                </mxCell>
                <mxCell id="UOKjDGIfQb2OCm12poKL-8" value="Neural Holography" style="text;html=1;strokeColor=default;fillColor=none;align=center;verticalAlign=middle;whiteSpace=wrap;rounded=0;" parent="1" vertex="1">
                    <mxGeometry x="80" y="240" width="80" height="40" as="geometry"/>
                </mxCell>
                <mxCell id="7" style="edgeStyle=none;html=1;exitX=0.75;exitY=0;exitDx=0;exitDy=0;entryX=0.75;entryY=1;entryDx=0;entryDy=0;" parent="1" source="UOKjDGIfQb2OCm12poKL-9" target="3" edge="1">
                    <mxGeometry relative="1" as="geometry"/>
                </mxCell>
                <mxCell id="9" style="edgeStyle=none;html=1;exitX=1;exitY=0.5;exitDx=0;exitDy=0;entryX=0;entryY=1;entryDx=0;entryDy=0;" parent="1" source="UOKjDGIfQb2OCm12poKL-9" target="UOKjDGIfQb2OCm12poKL-5" edge="1">
                    <mxGeometry relative="1" as="geometry">
                        <mxPoint x="330.0000000000001" y="220" as="targetPoint"/>
                    </mxGeometry>
                </mxCell>
                <mxCell id="UOKjDGIfQb2OCm12poKL-9" value="$$\phi_N$$" style="text;html=1;align=center;verticalAlign=middle;whiteSpace=wrap;rounded=0;strokeColor=default;" parent="1" vertex="1">
                    <mxGeometry x="220" y="240" width="60" height="40" as="geometry"/>
                </mxCell>
                <mxCell id="6" style="edgeStyle=none;html=1;exitX=0.25;exitY=1;exitDx=0;exitDy=0;entryX=0.25;entryY=0;entryDx=0;entryDy=0;" parent="1" source="3" target="UOKjDGIfQb2OCm12poKL-9" edge="1">
                    <mxGeometry relative="1" as="geometry"/>
                </mxCell>
                <mxCell id="8" style="edgeStyle=none;html=1;exitX=1;exitY=0.5;exitDx=0;exitDy=0;" parent="1" source="3" target="UOKjDGIfQb2OCm12poKL-5" edge="1">
                    <mxGeometry relative="1" as="geometry"/>
                </mxCell>
                <mxCell id="3" value="$$\phi_H$$" style="text;html=1;align=center;verticalAlign=middle;whiteSpace=wrap;rounded=0;strokeColor=default;" parent="1" vertex="1">
                    <mxGeometry x="220" y="120" width="60" height="40" as="geometry"/>
                </mxCell>
                <mxCell id="10" value="$$t_{N\rightarrow H}$$" style="text;html=1;align=center;verticalAlign=middle;whiteSpace=wrap;rounded=0;strokeColor=none;" parent="1" vertex="1">
                    <mxGeometry x="260" y="180" width="60" height="40" as="geometry"/>
                </mxCell>
                <mxCell id="16" value="$$t_{H\rightarrow N}$$" style="text;html=1;align=center;verticalAlign=middle;whiteSpace=wrap;rounded=0;strokeColor=none;" parent="1" vertex="1">
                    <mxGeometry x="180" y="180" width="60" height="40" as="geometry"/>
                </mxCell>
                <mxCell id="17" value="$$p_H$$" style="text;html=1;align=center;verticalAlign=middle;whiteSpace=wrap;rounded=0;strokeColor=none;" parent="1" vertex="1">
                    <mxGeometry x="300" y="130" width="60" height="40" as="geometry"/>
                </mxCell>
                <mxCell id="18" value="$$p_N&lt;br&gt;$$" style="text;html=1;align=center;verticalAlign=middle;whiteSpace=wrap;rounded=0;strokeColor=none;" parent="1" vertex="1">
                    <mxGeometry x="300" y="230" width="60" height="40" as="geometry"/>
                </mxCell>
            </root>
        </mxGraphModel>
    </diagram>
</mxfile>